<?xml version="1.0" standalone="no"?>
<!DOCTYPE svg PUBLIC "-//W3C//DTD SVG 20010904//EN"
 "http://www.w3.org/TR/2001/REC-SVG-20010904/DTD/svg10.dtd">
<svg version="1.0" xmlns="http://www.w3.org/2000/svg"
 width="500.000000pt" height="500.000000pt" viewBox="0 0 500.000000 500.000000"
 preserveAspectRatio="xMidYMid meet">

<g transform="translate(0.000000,500.000000) scale(0.100000,-0.100000)"
fill="#000000" stroke="none">
<path d="M2351 3942 c-66 -33 -95 -100 -78 -180 7 -35 5 -48 -12 -78 -12 -19
-21 -37 -21 -40 0 -2 18 -4 40 -4 33 0 40 -3 40 -20 0 -19 -7 -20 -205 -20
l-205 0 0 -35 0 -35 125 0 c137 0 140 -2 105 -55 -11 -16 -20 -33 -20 -37 0
-5 27 -8 61 -8 52 0 60 -2 57 -17 -3 -17 -24 -18 -256 -21 l-252 -2 0 -35 0
-35 159 -2 160 -3 -50 -85 c-27 -47 -49 -88 -49 -92 0 -5 25 -8 55 -8 48 0 55
-2 55 -20 0 -19 -7 -20 -165 -20 l-165 0 0 -35 0 -35 76 0 c69 0 75 -2 69 -17
-14 -32 -17 -117 -6 -145 9 -25 16 -28 56 -28 38 0 45 -3 45 -20 0 -20 -7 -20
-305 -20 l-305 0 0 -40 0 -41 291 1 292 2 51 -91 51 -91 63 0 c55 0 63 -2 60
-17 -3 -16 -20 -18 -161 -21 l-157 -3 0 -34 0 -34 131 -3 132 -3 55 -97 56
-98 53 0 c46 0 53 -3 53 -20 0 -19 -7 -20 -240 -20 l-240 0 0 -35 0 -35 216 0
216 0 39 -44 c22 -24 61 -55 87 -68 44 -21 59 -23 222 -23 172 0 176 1 232 28
32 16 68 42 80 59 13 17 79 128 148 247 l125 216 188 3 c103 1 187 0 187 -4 0
-4 -41 -79 -92 -168 -119 -208 -169 -260 -198 -205 -18 33 -71 59 -120 59
-152 0 -207 -199 -78 -281 49 -30 122 -22 179 19 23 18 54 32 68 32 40 1 103
34 142 76 28 30 369 603 369 620 0 2 -165 4 -367 4 l-368 0 -150 -261 c-108
-187 -158 -264 -177 -275 -20 -10 -65 -14 -172 -14 -145 0 -146 0 -175 28 -16
15 -120 186 -231 380 -179 313 -202 357 -198 390 2 26 63 141 203 384 186 323
202 347 231 353 17 3 44 17 58 30 128 119 -9 326 -163 247z"/>
<path d="M2525 3454 c-132 -229 -245 -431 -252 -448 -18 -48 -15 -135 6 -182
11 -23 64 -120 120 -216 99 -171 100 -175 90 -212 -15 -53 -4 -100 32 -141 71
-80 196 -67 244 25 22 42 19 116 -6 156 -22 37 -48 54 -93 63 -24 5 -43 31
-139 200 -77 134 -111 202 -111 224 0 23 60 137 216 407 l217 375 247 3 c204
2 251 0 269 -12 19 -12 235 -372 235 -391 0 -3 -84 -5 -187 -5 l-188 0 -40 71
c-36 64 -40 77 -37 128 3 46 -1 62 -20 91 -64 95 -207 90 -258 -10 -24 -47
-25 -77 -4 -130 19 -48 61 -80 112 -87 35 -5 40 -10 97 -112 l60 -106 368 -3
c202 -1 367 1 367 4 0 4 -78 143 -172 308 -110 190 -188 316 -215 343 -67 68
-99 73 -433 73 l-286 0 -239 -416z"/>
<path d="M1480 3495 l0 -35 140 0 140 0 0 35 0 35 -140 0 -140 0 0 -35z"/>
<path d="M1370 3175 l0 -35 150 0 150 0 0 35 0 35 -150 0 -150 0 0 -35z"/>
<path d="M1120 2640 l0 -30 130 0 130 0 0 30 0 30 -130 0 -130 0 0 -30z"/>
<path d="M1550 2585 l0 -35 125 0 125 0 0 35 0 35 -125 0 -125 0 0 -35z"/>
<path d="M1550 2245 l0 -35 165 0 165 0 0 35 0 35 -165 0 -165 0 0 -35z"/>
<path d="M2320 1757 c-14 -7 -29 -26 -35 -45 -5 -17 -13 -32 -17 -32 -4 0 -8
-11 -8 -25 0 -14 5 -25 10 -25 6 0 10 -35 10 -85 l0 -85 30 0 30 0 0 85 c0 69
3 85 15 85 9 0 15 9 15 25 0 16 -6 25 -15 25 -17 0 -20 25 -5 35 12 7 14 55 3
55 -5 0 -19 -6 -33 -13z"/>
<path d="M2457 1763 c-22 -21 0 -63 33 -63 18 0 32 40 19 56 -12 15 -41 19
-52 7z"/>
<path d="M2770 1699 c0 -50 0 -50 -22 -35 -101 71 -201 -93 -108 -176 34 -31
66 -35 96 -13 25 19 34 19 34 0 0 -10 10 -15 30 -15 l30 0 0 145 0 145 -30 0
c-29 0 -30 -1 -30 -51z m-16 -91 c9 -12 16 -30 16 -40 0 -22 -34 -58 -55 -58
-22 0 -55 37 -55 62 0 52 65 77 94 36z"/>
<path d="M1383 1725 c-65 -28 -93 -126 -57 -196 21 -42 92 -73 145 -64 38 7
99 52 99 74 0 17 -66 13 -80 -4 -18 -22 -76 -19 -100 5 -24 24 -27 86 -5 117
20 29 62 38 91 18 13 -8 40 -15 60 -15 35 0 36 1 22 23 -33 50 -112 70 -175
42z"/>
<path d="M1684 1646 c-27 -27 -34 -42 -34 -74 0 -102 129 -149 194 -71 43 51
32 130 -24 162 -47 28 -97 22 -136 -17z m114 -28 c17 -17 15 -74 -4 -92 -46
-47 -107 22 -74 85 12 22 59 26 78 7z"/>
<path d="M1960 1570 l0 -110 30 0 30 0 0 66 c0 76 12 104 43 104 43 0 51 -15
55 -94 4 -72 5 -76 28 -76 23 0 24 2 24 88 0 80 -2 91 -23 110 -27 26 -79 29
-97 7 -7 -8 -16 -15 -21 -15 -5 0 -9 7 -9 15 0 10 -10 15 -30 15 l-30 0 0
-110z"/>
<path d="M2450 1570 l0 -110 30 0 30 0 0 110 0 110 -30 0 -30 0 0 -110z"/>
<path d="M2967 1665 c-55 -31 -64 -116 -18 -167 25 -28 36 -33 74 -33 34 0 52
6 71 24 14 14 26 28 26 33 0 12 -58 10 -65 -2 -14 -22 -75 -4 -75 22 0 4 34 8
75 8 l75 0 0 34 c0 75 -93 120 -163 81z m91 -47 c21 -21 13 -28 -33 -28 -25 0
-45 4 -45 8 0 15 24 32 45 32 12 0 26 -5 33 -12z"/>
<path d="M3220 1570 l0 -110 29 0 29 0 4 76 c4 79 12 94 55 94 31 0 43 -28 43
-104 l0 -66 30 0 30 0 0 69 c0 76 -11 117 -38 137 -23 18 -77 17 -92 -1 -7 -8
-16 -15 -21 -15 -5 0 -9 7 -9 15 0 10 -10 15 -30 15 l-30 0 0 -110z"/>
<path d="M3530 1655 c0 -23 4 -25 46 -25 l45 0 -45 -59 c-27 -35 -46 -70 -46
-85 0 -26 1 -26 80 -26 79 0 80 0 80 25 0 23 -4 25 -40 25 -22 0 -40 4 -40 9
0 5 18 32 40 60 23 29 40 61 40 76 0 25 -1 25 -80 25 -79 0 -80 0 -80 -25z"/>
</g>
</svg>
